<?xml version="1.0" encoding="iso-8859-1"?>
<!-- Generator: Adobe Illustrator 16.0.0, SVG Export Plug-In . SVG Version: 6.00 Build 0)  -->
<!DOCTYPE svg PUBLIC "-//W3C//DTD SVG 1.1//EN" "http://www.w3.org/Graphics/SVG/1.1/DTD/svg11.dtd">
<svg version="1.1" id="Capa_1" xmlns="http://www.w3.org/2000/svg" xmlns:xlink="http://www.w3.org/1999/xlink" x="0px" y="0px"
	 width="46.336px" height="46.337px" viewBox="0 0 46.336 46.337" style="enable-background:new 0 0 46.336 46.337;"
	 xml:space="preserve">
<g>
	<g>
		<path d="M31.153,20.853h-4.897v-5.895c0-1.708-1.379-3.092-3.087-3.092s-3.087,1.384-3.087,3.092v8.987
			c0,0.821,0.323,1.606,0.903,2.186s1.366,0.906,2.186,0.906l7.986-0.001c1.709,0,3.091-1.384,3.091-3.092
			C34.249,22.236,32.862,20.853,31.153,20.853z"/>
		<path d="M38.196,40.047c4.311-4.024,7.01-9.754,7.01-16.102c0-4.204-1.184-8.137-3.235-11.483l1.402-1.741
			c1.764-2.191,0.655-6.012-2.478-8.534l-0.129-0.104c-1.504-1.211-3.283-1.955-4.945-2.067c-1.664-0.113-3.072,0.416-3.92,1.467
			l-1.364,1.694c-2.306-0.82-4.785-1.269-7.368-1.269c-2.592,0-5.079,0.451-7.39,1.276l-1.372-1.702
			c-0.846-1.052-2.256-1.581-3.919-1.467C8.826,0.127,7.045,0.871,5.542,2.082L5.414,2.187C2.281,4.709,1.172,8.53,2.937,10.721
			l1.418,1.761c-2.043,3.342-3.223,7.268-3.223,11.463c0,6.348,2.699,12.078,7.009,16.102l-1.607,2.188
			c-0.843,1.146-0.596,2.76,0.55,3.602c0.46,0.338,0.994,0.5,1.524,0.5c0.792,0,1.574-0.363,2.079-1.051l1.604-2.183
			c3.211,1.831,6.924,2.878,10.878,2.878s7.667-1.047,10.878-2.878l1.604,2.183c0.504,0.688,1.287,1.051,2.078,1.051
			c0.53,0,1.064-0.163,1.524-0.5c1.146-0.842,1.394-2.456,0.552-3.602L38.196,40.047z M7.278,23.945
			c0-8.762,7.128-15.89,15.89-15.891c8.762,0,15.891,7.129,15.891,15.891c0,8.762-7.127,15.89-15.891,15.89
			C14.406,39.835,7.278,32.707,7.278,23.945z"/>
	</g>
</g>
<g>
</g>
<g>
</g>
<g>
</g>
<g>
</g>
<g>
</g>
<g>
</g>
<g>
</g>
<g>
</g>
<g>
</g>
<g>
</g>
<g>
</g>
<g>
</g>
<g>
</g>
<g>
</g>
<g>
</g>
</svg>
